<svg height="29.892536mm" viewBox="0 0 30.492832 29.892536" width="30.492832mm" xmlns="http://www.w3.org/2000/svg" xmlns:xlink="http://www.w3.org/1999/xlink"><clipPath id="a"><path d="m115.59 26.38a10.49 10.49 0 0 0 -5.2-6.87h-85.67a10.49 10.49 0 0 0 -5.2 6.87l-9.33 40.87a10.5 10.5 0 0 0 2 8.91l26.14 32.78a10.55 10.55 0 0 0 8.23 4h41.96a10.55 10.55 0 0 0 8.23-4l26.14-32.78a10.5 10.5 0 0 0 2-8.91z"/></clipPath><g transform="matrix(.26458333 0 0 .26458333 -2.623542 .010494)"><path d="m115.59 26.38a10.49 10.49 0 0 0 -5.2-6.87h-85.67a10.49 10.49 0 0 0 -5.2 6.87l-9.33 40.87a10.5 10.5 0 0 0 2 8.91l26.14 32.78a10.55 10.55 0 0 0 8.23 4h41.96a10.55 10.55 0 0 0 8.23-4l26.14-32.78a10.5 10.5 0 0 0 2-8.91z" fill="#8dc63f"/><g clip-path="url(#a)"><path d="m98.18 53.51-52-17.56-46.18 46.11 35.03 34.53z" opacity=".2"/></g><path d="m54.96 61.95 8.78 26 11.51-22.93 22.93-11.51-26-8.78-26-8.78z" fill="#e2e2e2"/><path d="m72.18 44.73-26-8.78 29.07 29.07 22.93-11.51z" fill="#fff"/><path d="m100.08 14.51-27.96-13.51a10.52 10.52 0 0 0 -9.12 0l-28 13.51z" fill="#fc6a30"/></g></svg>